<svg id="visual" viewBox="0 0 256 256" width="50" height="50" xmlns="http://www.w3.org/2000/svg" xmlns:xlink="http://www.w3.org/1999/xlink" version="1.1"><g transform="translate(150.20075502550958 156.09996451865356)"><path d="M75.3 -104.7C82 -84.1 61.2 -45.6 49.8 -21.8C38.5 1.9 36.6 11 33.2 21.4C29.8 31.8 25 43.6 14.4 53.5C3.9 63.3 -12.4 71.1 -31.5 70.9C-50.6 70.8 -72.5 62.6 -90 45.6C-107.6 28.5 -120.8 2.4 -121 -25.7C-121.2 -53.8 -108.5 -84 -86.2 -101.9C-63.9 -119.8 -31.9 -125.4 1.2 -126.8C34.3 -128.2 68.6 -125.4 75.3 -104.7" fill="#0066FF"></path></g></svg>