<svg id="visual" viewBox="0 0 360 256" width="360" height="256" xmlns="http://www.w3.org/2000/svg" xmlns:xlink="http://www.w3.org/1999/xlink" version="1.1"><rect x="0" y="0" width="360" height="256" fill="#2b3035"></rect><path d="M0 135L8.5 136.3C17 137.7 34 140.3 51.2 139.7C68.3 139 85.7 135 102.8 139.5C120 144 137 157 154.2 160.8C171.3 164.7 188.7 159.3 205.8 153C223 146.7 240 139.3 257.2 138.7C274.3 138 291.7 144 308.8 146.5C326 149 343 148 351.5 147.5L360 147L360 257L351.5 257C343 257 326 257 308.8 257C291.7 257 274.3 257 257.2 257C240 257 223 257 205.8 257C188.7 257 171.3 257 154.2 257C137 257 120 257 102.8 257C85.7 257 68.3 257 51.2 257C34 257 17 257 8.5 257L0 257Z" fill="#c62368"></path><path d="M0 184L8.5 181.7C17 179.3 34 174.7 51.2 173.3C68.3 172 85.7 174 102.8 171.7C120 169.3 137 162.7 154.2 162.7C171.3 162.7 188.7 169.3 205.8 172.7C223 176 240 176 257.2 176.2C274.3 176.3 291.7 176.7 308.8 178C326 179.3 343 181.7 351.5 182.8L360 184L360 257L351.5 257C343 257 326 257 308.8 257C291.7 257 274.3 257 257.2 257C240 257 223 257 205.8 257C188.7 257 171.3 257 154.2 257C137 257 120 257 102.8 257C85.7 257 68.3 257 51.2 257C34 257 17 257 8.5 257L0 257Z" fill="#d53867"></path><path d="M0 207L8.5 205C17 203 34 199 51.2 196C68.3 193 85.7 191 102.8 190.7C120 190.3 137 191.7 154.2 193.3C171.3 195 188.7 197 205.8 199C223 201 240 203 257.2 201.8C274.3 200.7 291.7 196.3 308.8 192.5C326 188.7 343 185.3 351.5 183.7L360 182L360 257L351.5 257C343 257 326 257 308.8 257C291.7 257 274.3 257 257.2 257C240 257 223 257 205.8 257C188.7 257 171.3 257 154.2 257C137 257 120 257 102.8 257C85.7 257 68.3 257 51.2 257C34 257 17 257 8.5 257L0 257Z" fill="#e34c67"></path><path d="M0 211L8.5 209.3C17 207.7 34 204.3 51.2 202.5C68.3 200.7 85.7 200.3 102.8 200.7C120 201 137 202 154.2 201.3C171.3 200.7 188.7 198.3 205.8 199C223 199.7 240 203.3 257.2 206.2C274.3 209 291.7 211 308.8 210.3C326 209.7 343 206.3 351.5 204.7L360 203L360 257L351.5 257C343 257 326 257 308.8 257C291.7 257 274.3 257 257.2 257C240 257 223 257 205.8 257C188.7 257 171.3 257 154.2 257C137 257 120 257 102.8 257C85.7 257 68.3 257 51.2 257C34 257 17 257 8.5 257L0 257Z" fill="#ef5f67"></path><path d="M0 233L8.5 230.3C17 227.7 34 222.3 51.2 220.3C68.3 218.3 85.7 219.7 102.8 222.8C120 226 137 231 154.2 234C171.3 237 188.7 238 205.8 238.8C223 239.7 240 240.3 257.2 240.7C274.3 241 291.7 241 308.8 237.7C326 234.3 343 227.7 351.5 224.3L360 221L360 257L351.5 257C343 257 326 257 308.8 257C291.7 257 274.3 257 257.2 257C240 257 223 257 205.8 257C188.7 257 171.3 257 154.2 257C137 257 120 257 102.8 257C85.7 257 68.3 257 51.2 257C34 257 17 257 8.5 257L0 257Z" fill="#fa7268"></path></svg>